<?xml version="1.0" encoding="UTF-8" standalone="no"?>
<svg
   fill="currentColor"
   viewBox="0 0 36 36"
   version="1.1"
   preserveAspectRatio="xMidYMid meet"
   id="svg2"
   sodipodi:docname="talks.svg"
   inkscape:version="1.4.2 (ebf0e940d0, 2025-05-08)"
   xmlns:inkscape="http://www.inkscape.org/namespaces/inkscape"
   xmlns:sodipodi="http://sodipodi.sourceforge.net/DTD/sodipodi-0.dtd"
   xmlns="http://www.w3.org/2000/svg"
   xmlns:svg="http://www.w3.org/2000/svg">
  <defs
     id="defs2" />
  <sodipodi:namedview
     id="namedview2"
     pagecolor="#ffffff"
     bordercolor="#000000"
     borderopacity="0.25"
     inkscape:showpageshadow="2"
     inkscape:pageopacity="0.0"
     inkscape:pagecheckerboard="0"
     inkscape:deskcolor="#d1d1d1"
     inkscape:zoom="24.222222"
     inkscape:cx="18"
     inkscape:cy="18"
     inkscape:window-width="2048"
     inkscape:window-height="1084"
     inkscape:window-x="0"
     inkscape:window-y="0"
     inkscape:window-maximized="1"
     inkscape:current-layer="svg2" />
  <path
     d="m 22.8,26 c -0.108312,0.54156 -0.247715,0.8 -0.8,0.8 H 8 c -0.22,0 -0.63,0.4 -0.81,0.53 L 4.2,29.6 V 14 C 4.2,13.447715 4.4477153,13.2 5,13.2 H 8.86 V 11 H 5 c -1.6568542,0 -3,1.343146 -3,3 v 18 c 0.00304,0.378786 0.2198346,0.723341 0.56,0.89 0.3270906,0.14875 0.708842,0.110575 1,-0.1 L 8.71,29 h 13.44 c 1.601131,0.04733 2.908527,-1.269239 2.85,-2.87 V 25 h -2 z"
     class="clr-i-outline clr-i-outline-path-1"
     id="path1"
     sodipodi:nodetypes="sssccssccssccccccccs" />
  <path
     d="M 31,4 H 14 c -1.656854,0 -3,1.3431458 -3,3 v 12 c 0,1.656854 1.343146,3 3,3 h 13.55 l 4.78,3.71 c 0.289279,0.213876 0.671147,0.255882 1,0.11 0.347284,-0.165403 0.568911,-0.515341 0.57,-0.9 V 7 C 33.900899,5.3814253 32.617675,4.0539522 31,4 Z m 0.8,18.74 -3.2,-2.53 C 28.42545,20.074532 28.110949,19.800688 27.89,19.8 H 14 c -0.552285,0 -0.8,-0.247715 -0.8,-0.8 V 7 c 0,-0.5522847 0.247715,-0.8 0.8,-0.8 h 17 c 0.553139,0.050203 0.782077,0.3048767 0.8,0.86 z"
     class="clr-i-outline clr-i-outline-path-2"
     id="path2"
     sodipodi:nodetypes="csssscccccccccssssccc" />
  <rect
     x="0"
     y="0"
     width="36"
     height="36"
     fill-opacity="0"
     id="rect2" />
</svg>
